<?xml version="1.0" standalone="no"?>
<!DOCTYPE svg PUBLIC "-//W3C//DTD SVG 20010904//EN"
 "http://www.w3.org/TR/2001/REC-SVG-20010904/DTD/svg10.dtd">
<svg version="1.0" xmlns="http://www.w3.org/2000/svg"
 width="1080.000000pt" height="1080.000000pt" viewBox="0 0 1080.000000 1080.000000"
 preserveAspectRatio="xMidYMid meet">
<metadata>
Created by potrace 1.11, written by Peter Selinger 2001-2013
</metadata>
<g transform="translate(0.000000,1080.000000) scale(0.100000,-0.100000)"
fill="#000000" stroke="none">
<path d="M7824 7251 c-2 -3 -41 -5 -87 -6 -45 0 -87 -4 -94 -8 -6 -4 -14 -3
-18 3 -4 6 -11 8 -16 4 -6 -3 -42 -7 -82 -9 -40 -2 -103 -6 -142 -10 -38 -4
-79 -8 -90 -9 -11 -1 -24 -4 -30 -7 -5 -3 -29 -5 -52 -4 -24 0 -43 -2 -43 -5
0 -3 -19 -6 -43 -7 -23 -2 -64 -7 -92 -13 -27 -5 -65 -12 -82 -15 -74 -12 -93
-16 -115 -24 -13 -4 -31 -7 -40 -6 -10 2 -18 0 -18 -4 0 -6 -10 -9 -65 -14
-14 -1 -25 -5 -25 -9 0 -3 -8 -5 -17 -4 -10 2 -20 -1 -23 -5 -3 -5 -20 -9 -38
-11 -18 -1 -32 -6 -32 -11 0 -4 -4 -5 -10 -2 -5 3 -20 0 -32 -6 -13 -7 -32
-14 -43 -15 -37 -6 -50 -9 -62 -17 -7 -5 -17 -6 -22 -2 -5 3 -12 1 -16 -5 -4
-6 -10 -8 -15 -5 -5 3 -11 1 -15 -5 -3 -5 -16 -10 -29 -10 -12 0 -27 -5 -32
-10 -6 -6 -19 -12 -30 -14 -11 -2 -60 -17 -109 -32 -50 -15 -94 -29 -100 -30
-5 -2 -48 -15 -95 -30 -47 -14 -94 -27 -105 -28 -11 -1 -24 -4 -30 -8 -5 -3
-23 -9 -40 -12 -56 -12 -75 -16 -97 -21 -13 -3 -39 -8 -58 -11 -19 -2 -46 -6
-60 -9 -93 -14 -118 -18 -140 -19 -14 -1 -30 -5 -37 -9 -6 -4 -13 -2 -15 4 -3
8 -10 9 -23 2 -11 -6 -46 -10 -77 -9 -32 1 -58 -1 -58 -4 0 -10 -44 -6 -52 5
-5 7 -8 7 -8 0 0 -10 -100 -10 -127 0 -7 2 -15 0 -18 -6 -4 -5 -10 -7 -14 -4
-5 2 -43 7 -86 10 -121 8 -201 17 -265 30 -19 4 -43 7 -52 7 -10 0 -18 3 -18
7 0 4 -13 6 -30 5 -16 -1 -30 1 -30 6 0 4 -12 6 -27 4 -15 -1 -32 1 -38 5 -8
7 -65 22 -100 26 -5 1 -30 7 -55 14 -25 7 -54 15 -65 17 -20 4 -58 12 -85 19
-8 2 -15 4 -15 5 0 1 -10 3 -22 6 -13 2 -33 6 -45 8 -13 3 -23 5 -23 6 0 1
-10 3 -22 6 -13 2 -33 6 -45 8 -13 3 -23 5 -23 6 0 2 -28 8 -75 16 -67 11 -75
12 -75 14 0 1 -13 4 -30 6 -38 4 -93 13 -125 20 -14 4 -43 8 -65 10 -22 2 -60
6 -85 9 -79 9 -153 15 -229 19 -40 3 -75 7 -78 10 -3 3 -14 1 -24 -5 -11 -5
-19 -6 -19 -2 0 4 -11 8 -25 8 -14 0 -25 -4 -25 -8 0 -5 -6 -5 -12 0 -18 11
-398 10 -398 -1 0 -5 -6 -3 -13 3 -8 6 -17 8 -20 4 -4 -3 -49 -8 -99 -9 -51
-2 -133 -6 -183 -9 -49 -3 -110 -7 -135 -8 -25 -2 -50 -5 -55 -8 -6 -3 -25 -5
-42 -4 -18 1 -33 -3 -33 -8 0 -5 -6 -4 -13 2 -8 6 -16 8 -19 5 -8 -7 -45 -13
-101 -16 -26 -2 -47 -5 -47 -8 0 -3 -12 -5 -27 -6 -33 -1 -117 -11 -153 -19
-14 -3 -38 -8 -55 -10 -16 -2 -43 -6 -60 -9 -16 -3 -46 -9 -65 -12 -77 -13
-86 -15 -105 -21 -11 -4 -27 -8 -35 -9 -55 -9 -80 -14 -120 -24 -25 -6 -52
-13 -60 -14 -8 -1 -24 -5 -35 -9 -11 -3 -31 -8 -45 -11 -14 -2 -46 -11 -73
-19 -26 -8 -47 -13 -47 -10 0 3 -6 0 -14 -6 -7 -6 -25 -12 -40 -13 -14 -1 -26
-6 -26 -10 0 -4 -3 -7 -7 -6 -17 3 -83 -15 -83 -23 0 -5 -9 -9 -20 -9 -25 0
-107 -26 -142 -46 -16 -8 -28 -13 -28 -10 0 3 -28 -7 -62 -23 -35 -15 -66 -29
-71 -29 -4 -1 -21 -9 -37 -17 -17 -9 -30 -13 -30 -9 0 10 -46 -50 -55 -71 -4
-11 -9 -47 -11 -80 -2 -33 -6 -65 -8 -72 -3 -7 -1 -15 5 -18 5 -4 6 -11 3 -17
-6 -10 -10 -97 -15 -393 -2 -109 15 -146 83 -178 20 -9 40 -17 46 -17 5 0 18
-12 27 -27 10 -14 29 -37 43 -49 13 -13 22 -30 19 -38 -3 -7 0 -19 6 -25 6 -6
8 -14 4 -17 -11 -11 -57 -13 -57 -3 0 6 -6 7 -12 2 -19 -11 -38 -12 -62 -3
-12 4 -29 4 -38 -1 -10 -5 -26 -5 -40 0 -14 5 -31 5 -40 0 -10 -5 -26 -5 -41
0 -34 13 -71 -12 -58 -38 8 -15 23 -18 86 -17 43 1 79 -2 82 -7 2 -4 10 -4 16
0 18 11 107 9 107 -2 0 -7 3 -7 8 0 6 9 23 11 60 6 6 0 12 -13 12 -28 l0 -28
-161 1 -160 1 3 -25 c2 -18 11 -28 30 -33 16 -4 28 -3 28 2 0 5 11 4 25 -1 13
-5 26 -6 29 -2 2 4 53 6 114 4 103 -3 110 -5 120 -26 16 -35 2 -44 -63 -41
-33 1 -66 -3 -72 -8 -7 -5 -13 -6 -13 -1 0 16 -107 9 -124 -8 -14 -15 -14 -17
1 -29 11 -10 52 -14 147 -14 72 0 136 -3 142 -7 6 -4 14 -21 17 -38 4 -16 8
-33 9 -38 2 -4 -50 -8 -114 -8 -145 -2 -162 -7 -139 -43 7 -11 39 -14 142 -15
143 -1 134 3 143 -56 1 -9 5 -21 10 -28 4 -6 6 -13 4 -13 -2 -1 -61 -2 -133
-3 l-130 -1 0 -25 c0 -18 5 -25 20 -25 11 -1 25 -4 30 -7 6 -4 17 -3 25 2 8 5
21 5 30 0 9 -5 22 -5 29 -1 7 5 28 5 47 1 23 -5 34 -4 34 3 0 8 4 7 12 -1 7
-7 17 -8 29 -2 14 8 19 4 28 -20 9 -26 7 -31 -11 -41 -16 -9 -19 -8 -12 3 6
10 5 11 -7 2 -14 -11 -97 -12 -115 -2 -14 9 -49 -15 -50 -34 -1 -10 3 -19 10
-19 6 -1 20 -3 31 -5 31 -5 55 -5 117 -1 53 3 58 2 68 -22 6 -15 13 -38 15
-53 l5 -27 -60 3 c-34 1 -63 -1 -66 -6 -3 -4 -13 -4 -22 0 -21 11 -56 1 -60
-17 -6 -30 16 -36 121 -35 l105 2 26 -70 c14 -39 23 -74 20 -79 -3 -5 0 -9 5
-9 6 0 10 -3 10 -7 -1 -5 0 -11 1 -15 1 -5 3 -11 4 -15 1 -7 17 -50 44 -123 3
-8 6 -17 7 -20 8 -22 44 -106 79 -180 11 -25 20 -48 18 -52 -1 -5 2 -8 8 -8 5
0 10 -9 10 -20 0 -11 3 -20 8 -20 4 0 18 -23 31 -50 14 -28 29 -50 34 -50 4 0
6 -4 3 -9 -3 -4 2 -17 12 -28 9 -11 28 -35 42 -54 66 -88 130 -152 200 -201
25 -18 46 -35 48 -40 2 -4 10 -8 17 -8 8 0 19 -8 24 -17 6 -10 11 -14 11 -10
0 4 12 -4 28 -18 15 -14 35 -28 45 -31 9 -3 17 -9 17 -14 0 -4 12 -13 27 -19
16 -6 42 -20 58 -31 39 -25 98 -54 108 -52 4 1 7 -3 7 -9 0 -5 4 -8 9 -4 5 3
12 1 16 -5 3 -5 15 -10 26 -10 10 0 19 -4 19 -10 0 -5 7 -7 15 -4 8 4 15 1 15
-6 0 -6 5 -8 10 -5 6 3 10 1 10 -4 0 -6 3 -10 8 -9 6 2 104 -25 142 -39 8 -4
21 -5 27 -4 7 1 13 -2 13 -6 0 -5 8 -9 18 -10 22 -2 53 -8 122 -23 30 -7 64
-14 75 -15 11 -1 20 -3 20 -5 0 -1 11 -4 25 -5 14 -2 39 -6 55 -9 17 -3 41 -8
55 -10 14 -3 25 -5 25 -6 0 -3 112 -13 152 -13 24 -1 43 -3 43 -6 0 -15 537
-14 566 1 5 2 24 4 42 4 17 -1 32 1 32 4 0 3 17 5 38 4 20 0 42 2 47 5 6 3 19
6 30 7 11 1 34 5 50 8 17 4 41 9 55 11 42 7 64 13 91 23 15 6 30 8 33 5 3 -3
13 0 22 8 10 8 18 12 18 11 2 -8 76 11 76 20 0 5 4 7 9 4 5 -3 25 1 44 9 19 8
37 11 41 8 3 -4 6 -2 6 4 0 6 16 14 35 17 19 4 35 11 35 16 0 6 9 10 19 10 11
0 23 5 26 10 4 6 10 8 15 5 4 -2 19 4 33 15 14 11 32 20 40 20 8 0 20 7 27 15
7 8 16 13 20 10 5 -3 11 -1 14 4 3 4 37 27 75 50 38 23 77 48 85 56 8 9 18 15
21 15 6 -1 6 -1 100 77 91 75 156 142 230 239 11 14 26 32 33 39 6 8 12 18 12
24 0 5 8 14 18 20 9 5 16 12 14 16 -2 3 13 32 32 64 20 32 36 64 36 70 0 6 5
11 12 11 6 0 8 3 5 7 -4 3 1 15 10 26 10 10 17 21 16 23 -2 2 9 30 23 61 15
32 27 64 27 71 0 6 4 12 9 12 4 0 7 3 6 8 -1 4 4 21 11 37 7 17 14 35 15 40 2
6 7 21 13 35 16 40 55 153 58 172 2 9 9 27 16 40 7 13 11 23 10 23 -1 0 0 7 3
15 22 68 36 116 36 123 0 4 6 23 14 42 9 20 15 39 16 43 0 4 6 25 12 47 16 57
19 68 20 83 1 6 5 12 10 12 5 0 6 5 3 10 -4 6 -2 16 3 23 5 7 12 26 16 42 18
74 83 235 115 282 34 50 101 100 115 86 3 -3 6 -2 6 3 0 5 12 10 28 12 15 1
38 3 51 4 27 3 28 1 72 -97 62 -139 73 -167 70 -179 -1 -5 2 -12 7 -15 8 -6
60 -134 67 -167 2 -5 12 -30 24 -53 11 -24 18 -47 16 -52 -3 -4 -1 -9 5 -11 6
-2 12 -12 14 -23 3 -11 12 -38 22 -60 10 -22 17 -43 16 -47 -1 -5 3 -8 9 -8 5
0 7 -4 4 -10 -3 -5 -1 -10 5 -10 6 0 10 -6 9 -12 -1 -7 6 -31 16 -53 10 -22
18 -43 17 -47 -1 -5 3 -8 10 -8 6 0 9 -3 6 -6 -7 -7 110 -248 123 -252 5 -2 7
-8 3 -13 -3 -5 0 -9 5 -9 6 0 11 -5 11 -12 0 -17 77 -136 155 -236 23 -29 173
-179 205 -204 80 -63 171 -128 180 -128 4 0 10 -4 12 -8 4 -12 153 -112 165
-112 6 0 16 -7 23 -15 7 -8 16 -13 20 -10 5 3 10 2 12 -3 4 -10 165 -88 201
-97 15 -4 30 -11 32 -16 3 -4 12 -6 20 -2 8 3 15 0 15 -6 0 -6 7 -11 15 -11 9
0 53 -12 98 -26 45 -15 91 -28 102 -29 11 -1 20 -3 20 -4 0 -4 36 -11 80 -17
21 -3 43 -8 47 -10 5 -3 21 -7 36 -10 15 -2 50 -9 77 -14 28 -5 66 -12 85 -14
19 -3 48 -8 63 -11 15 -3 53 -7 83 -9 30 -2 58 -6 61 -10 3 -3 12 -1 20 5 7 6
13 7 13 3 0 -11 320 -12 338 -1 7 5 12 3 12 -3 0 -8 7 -9 18 -5 9 4 42 9 72
11 68 5 88 8 96 17 4 3 14 2 24 -3 10 -5 20 -6 24 -3 7 8 7 8 85 17 30 4 64 9
75 12 12 3 35 7 51 9 17 2 30 4 30 5 0 2 27 9 60 15 30 6 46 10 90 23 22 6 43
12 48 12 4 0 22 6 41 14 19 8 37 12 40 8 3 -3 6 0 6 7 0 7 4 10 8 7 4 -2 21 1
37 8 17 7 44 19 60 26 17 8 32 14 35 15 20 5 106 51 112 59 4 6 8 7 8 2 0 -5
6 -4 13 2 6 5 35 22 62 37 28 16 52 31 55 34 3 3 28 22 55 41 28 19 56 39 63
45 23 18 120 119 144 150 12 17 28 36 35 43 7 7 13 17 13 21 0 4 9 18 20 31
11 12 17 27 14 31 -3 5 0 9 6 9 6 0 8 4 5 10 -3 6 -2 10 3 10 15 0 134 274
147 342 2 9 8 25 13 35 6 10 10 21 11 26 1 4 2 9 2 12 1 3 2 13 3 23 1 9 4 22
8 27 7 12 23 87 20 98 -1 4 3 7 8 7 6 0 10 14 10 30 0 17 4 30 8 30 4 0 8 12
7 28 0 15 5 42 12 59 7 18 13 35 13 38 0 3 0 11 0 18 0 10 22 14 81 14 87 2
111 12 93 41 -9 13 -26 17 -80 17 l-69 0 3 40 c2 22 9 45 16 50 8 6 46 10 85
10 60 -1 72 2 77 17 3 10 3 22 0 27 -7 11 -86 19 -86 8 0 -4 -9 -3 -19 3 -12
6 -21 6 -23 0 -8 -23 -29 8 -22 33 6 25 22 33 49 27 28 -6 55 -7 55 -1 0 10
84 7 92 -4 5 -6 8 -6 8 2 0 7 10 10 26 7 15 -3 23 -1 20 5 -4 5 -2 12 3 16 6
3 8 12 5 19 -4 10 -34 13 -123 12 -120 -1 -124 0 -111 34 4 10 7 25 8 46 2 19
8 20 122 20 115 -1 122 0 136 22 13 20 13 23 -2 29 -10 3 -67 7 -128 7 -85 1
-110 4 -108 14 1 7 4 26 5 42 2 17 6 32 8 35 3 2 68 5 146 6 127 1 142 3 146
19 2 10 2 22 -2 27 -3 6 -65 9 -143 9 -133 -2 -137 -1 -133 19 2 11 4 28 4 38
1 10 6 15 12 12 14 -9 59 -14 59 -6 0 3 58 6 130 5 71 0 134 2 139 5 5 4 5 16
0 29 -7 19 -15 22 -49 19 -22 -2 -40 1 -40 5 0 5 -5 6 -11 2 -7 -4 -61 -7
-120 -8 l-109 -1 3 25 c3 16 11 26 23 26 10 1 21 3 24 4 17 7 250 3 250 -4 0
-5 6 -4 13 3 8 6 23 9 35 6 30 -5 57 22 41 42 -7 7 -18 12 -25 9 -7 -3 -16 -1
-20 5 -4 7 -10 6 -19 -1 -9 -8 -15 -8 -20 0 -3 6 -12 7 -18 3 -18 -11 -80 -11
-94 0 -8 5 -13 5 -13 0 0 -10 -60 -10 -78 1 -7 4 -12 2 -12 -4 0 -7 -6 -8 -19
0 -14 7 -22 7 -26 0 -13 -22 -23 2 -17 42 3 25 14 50 26 60 59 50 69 57 77 52
5 -3 9 -2 9 3 0 4 13 14 30 21 16 7 32 22 35 33 4 10 11 19 17 19 5 0 8 6 5
14 -3 8 -3 17 1 20 8 8 10 46 3 46 -3 0 -7 17 -8 38 -4 107 -9 162 -13 162 -3
0 -6 19 -7 43 0 48 -11 192 -13 192 -1 0 -4 16 -6 35 -11 112 -14 135 -26 161
-7 16 -19 29 -25 29 -7 0 -13 3 -13 8 0 13 -150 69 -172 64 -5 -1 -8 2 -8 8 0
6 -3 9 -7 8 -21 -5 -79 17 -105 40 -16 14 -36 27 -45 28 -9 2 -20 9 -24 16 -5
7 -9 9 -9 4 0 -5 -7 -3 -15 4 -8 7 -15 9 -15 5 0 -4 -6 -3 -12 2 -7 6 -20 10
-28 11 -13 0 -32 6 -100 30 -8 3 -19 6 -25 7 -5 0 -16 4 -22 8 -7 5 -17 6 -22
3 -5 -4 -11 -3 -13 2 -3 8 -213 60 -278 69 -19 3 -43 9 -53 15 -9 5 -22 6 -27
3 -6 -3 -16 -3 -22 2 -7 4 -24 8 -38 9 -14 1 -25 2 -25 3 0 3 -54 11 -97 14
-21 1 -38 4 -38 8 0 3 -15 6 -32 6 -18 1 -46 4 -63 8 -16 3 -48 8 -70 10 -22
2 -62 7 -90 10 -27 3 -68 7 -91 9 -22 2 -46 6 -52 10 -7 4 -12 2 -12 -5 0 -7
-4 -8 -12 -2 -7 5 -26 8 -43 8 -16 -1 -40 2 -52 6 -13 5 -25 4 -28 -2 -4 -5
-11 -7 -16 -3 -21 12 -693 27 -705 15z m375 -632 c8 5 27 5 42 1 17 -5 31 -5
35 1 3 5 10 6 16 3 5 -3 58 -8 116 -10 133 -5 240 -15 302 -29 14 -3 39 -8 55
-11 41 -8 59 -12 65 -15 3 -1 10 -3 15 -4 6 -2 12 -4 15 -5 3 -1 12 -3 20 -5
32 -6 176 -58 185 -66 5 -5 17 -9 27 -9 10 0 18 -4 18 -10 0 -5 6 -10 14 -10
12 0 47 -30 71 -62 22 -27 64 -121 59 -129 -3 -5 -1 -9 5 -9 5 0 8 -8 6 -17
-1 -10 0 -22 3 -28 4 -5 7 -21 8 -35 1 -14 2 -25 4 -25 7 0 10 -79 11 -235 0
-151 -5 -295 -11 -295 -1 0 -3 -18 -5 -40 -1 -22 -5 -61 -9 -87 -3 -27 -8 -68
-11 -92 -3 -24 -8 -55 -10 -67 -3 -13 -8 -37 -11 -54 -4 -16 -8 -41 -9 -55 -2
-14 -4 -25 -5 -25 -2 0 -6 -23 -14 -75 -2 -14 -4 -26 -5 -27 -1 -2 -1 -5 -2
-8 0 -2 -10 -37 -20 -77 -11 -40 -22 -84 -25 -98 -8 -40 -85 -264 -95 -276 -5
-6 -6 -14 -2 -17 3 -4 2 -7 -3 -7 -6 0 -16 -16 -24 -35 -8 -19 -17 -35 -21
-35 -4 0 -10 -8 -13 -18 -6 -17 -126 -145 -166 -177 -37 -29 -110 -75 -119
-75 -6 0 -11 -5 -11 -11 0 -5 -4 -7 -10 -4 -5 3 -10 1 -10 -4 0 -6 -7 -11 -16
-11 -9 0 -28 -7 -42 -15 -36 -20 -85 -39 -96 -36 -4 1 -13 -2 -20 -7 -10 -8
-27 -14 -91 -29 -41 -9 -50 -12 -50 -13 0 -1 -11 -3 -25 -5 -14 -2 -41 -6 -60
-10 -19 -4 -51 -8 -70 -10 -19 -2 -35 -4 -35 -5 0 -3 -54 -9 -127 -13 -36 -3
-71 -8 -77 -12 -6 -3 -11 -1 -11 6 0 7 -4 8 -12 2 -19 -14 -320 -5 -438 13
-25 4 -57 7 -72 7 -16 1 -28 3 -28 7 0 3 -9 6 -21 7 -11 1 -46 7 -77 14 -31 7
-60 12 -64 11 -5 -1 -8 2 -8 8 0 5 -6 10 -13 10 -12 0 -36 16 -111 73 -46 35
-129 118 -161 162 -17 22 -35 45 -41 50 -16 15 -64 93 -64 104 0 5 -3 11 -7
13 -5 2 -24 35 -43 73 -19 39 -39 73 -43 76 -5 3 -8 9 -7 13 1 4 -8 27 -19 51
-12 25 -29 64 -40 88 -10 23 -28 63 -40 89 -11 26 -21 50 -21 52 0 3 -5 17
-12 33 -6 15 -12 30 -13 33 -1 3 -5 13 -8 23 -20 52 -20 50 -28 87 -2 8 -6 17
-9 20 -11 10 -81 280 -73 280 2 0 1 6 -4 13 -9 14 -11 26 -18 82 -2 22 -8 65
-13 95 -9 67 -4 315 8 315 1 0 3 9 5 19 2 11 7 31 11 45 4 14 7 29 6 34 -1 4
3 7 9 7 5 0 8 4 4 9 -3 5 -1 12 5 16 5 3 10 13 10 21 0 23 81 111 123 133 15
8 27 18 27 23 0 4 6 8 14 8 8 0 22 8 32 18 10 9 21 17 25 17 4 0 11 3 15 8 4
4 15 7 25 7 9 0 19 5 21 11 2 5 10 11 18 13 8 2 29 9 45 15 17 7 35 14 40 16
6 1 26 8 45 16 19 7 38 12 43 11 4 -1 7 3 7 10 0 6 3 8 6 5 4 -3 15 -2 25 3
10 6 29 11 43 12 15 1 26 6 26 11 0 4 5 5 10 2 6 -3 16 -3 23 2 6 4 19 8 27 8
8 0 21 4 28 8 6 5 16 6 21 2 5 -3 12 -1 16 4 3 5 14 8 25 6 11 -2 20 0 20 4 0
4 6 8 13 8 23 1 94 13 125 23 18 5 32 7 32 4 0 -3 10 0 21 7 17 9 20 8 14 -2
-5 -8 -4 -10 3 -5 20 12 62 19 187 31 33 4 76 8 95 11 73 9 169 15 287 17 68
1 123 6 123 11 0 5 6 4 13 -2 7 -6 18 -7 26 -3z m-5007 -184 c5 -6 8 -5 8 3 0
8 5 10 13 5 16 -10 39 -10 55 1 7 5 17 4 26 -3 10 -8 16 -9 21 -1 3 6 11 7 17
3 7 -3 50 -8 97 -9 47 -2 113 -6 146 -9 33 -3 77 -7 97 -8 21 -1 38 -4 38 -7
0 -3 8 -6 18 -6 68 -2 296 -56 373 -88 20 -8 39 -12 43 -9 3 4 6 1 6 -5 0 -7
6 -12 13 -12 34 -1 137 -66 137 -86 0 -8 4 -14 9 -14 8 0 18 -19 26 -50 1 -3
4 -12 8 -20 32 -82 50 -199 50 -325 0 -74 -7 -180 -18 -250 -2 -16 -7 -48 -10
-70 -4 -22 -8 -47 -9 -55 -1 -9 -5 -21 -10 -28 -4 -6 -5 -16 -1 -21 3 -5 1
-12 -4 -16 -5 -3 -8 -14 -6 -25 2 -11 0 -20 -4 -20 -5 0 -8 -8 -8 -17 1 -10
-5 -38 -12 -63 -8 -25 -14 -51 -14 -57 0 -7 -3 -13 -7 -13 -4 0 -7 -6 -7 -13
0 -24 -67 -222 -78 -229 -5 -4 -7 -8 -2 -8 4 0 0 -17 -9 -37 -9 -21 -17 -44
-17 -50 0 -7 -4 -13 -9 -13 -5 0 -6 -4 -3 -10 3 -5 2 -10 -3 -10 -5 0 -9 -6
-9 -14 0 -8 -7 -29 -16 -48 -17 -36 -40 -90 -41 -98 -2 -12 -88 -162 -102
-178 -8 -9 -13 -19 -12 -22 1 -3 -14 -22 -35 -43 -20 -21 -37 -44 -37 -50 0
-5 -3 -8 -6 -4 -7 7 -44 -29 -44 -43 0 -5 -3 -10 -8 -10 -4 0 -23 -14 -41 -31
-44 -39 -175 -129 -190 -129 -6 0 -11 -4 -11 -9 0 -8 -37 -24 -52 -22 -5 1 -8
-3 -8 -7 0 -6 -50 -30 -80 -37 -3 -1 -18 -8 -35 -15 -16 -7 -33 -14 -37 -15
-5 -2 -10 -4 -13 -5 -3 -1 -9 -4 -15 -5 -5 -1 -12 -4 -15 -5 -3 -1 -8 -3 -12
-4 -5 -2 -26 -8 -48 -14 -22 -6 -55 -14 -74 -17 -19 -3 -37 -7 -40 -9 -5 -4
-56 -14 -106 -21 -11 -2 -20 -4 -20 -5 0 -1 -12 -3 -27 -5 -43 -6 -33 3 17 16
25 6 45 14 45 18 0 4 15 13 34 19 59 22 183 108 256 179 69 68 180 200 180
216 0 4 5 13 10 20 21 25 58 86 65 106 3 12 11 21 17 21 6 0 8 3 5 7 -4 3 0
17 8 29 50 77 162 434 168 536 1 21 4 38 7 38 6 0 13 42 12 78 0 12 4 22 8 22
5 0 9 8 8 18 0 23 10 99 20 142 4 19 8 42 7 50 0 8 2 17 6 20 4 3 9 23 13 45
12 84 30 160 39 166 5 3 8 9 7 13 -4 18 14 96 22 96 5 0 6 5 3 10 -4 6 -2 16
3 23 6 7 11 17 11 22 2 17 12 48 39 120 14 39 27 72 28 75 2 9 23 60 49 116
14 30 25 59 25 63 0 5 6 12 13 14 7 3 8 6 1 6 -6 1 -32 -15 -57 -34 -25 -19
-51 -35 -56 -35 -6 0 -11 -3 -11 -8 0 -4 -18 -18 -40 -32 -22 -14 -40 -27 -40
-30 0 -3 -16 -14 -35 -24 -19 -11 -35 -23 -35 -28 0 -4 -5 -8 -11 -8 -6 0 -24
-10 -39 -22 -15 -13 -36 -29 -46 -36 -10 -7 -66 -46 -124 -87 -58 -42 -163
-116 -235 -167 -71 -50 -138 -99 -148 -109 -10 -11 -22 -19 -27 -19 -19 0
-235 -228 -264 -279 -5 -9 -13 -18 -17 -21 -16 -11 -129 -191 -135 -214 -3
-14 -10 -26 -14 -26 -4 0 -15 -19 -25 -42 -9 -24 -23 -56 -30 -73 -15 -35 -27
-65 -32 -82 -8 -30 -10 -40 -17 -68 -4 -16 -10 -37 -13 -45 -3 -8 -8 -33 -10
-55 -3 -22 -5 -41 -7 -42 -1 -1 -29 24 -63 55 -34 31 -72 66 -85 77 -41 35
-232 159 -276 180 -23 11 -42 23 -42 28 0 4 -4 7 -9 7 -5 0 -64 27 -132 59
-68 33 -136 63 -151 66 -25 6 -27 5 -22 -17 3 -12 7 -34 10 -48 3 -14 14 -59
25 -100 11 -41 22 -82 24 -90 2 -8 13 -42 25 -75 11 -33 22 -67 24 -75 7 -28
59 -155 72 -175 7 -11 13 -24 13 -28 -1 -16 112 -213 154 -268 88 -118 225
-247 278 -264 11 -4 19 -11 19 -16 0 -5 5 -9 10 -9 6 0 30 -9 52 -20 23 -11
47 -20 54 -20 7 0 15 -4 18 -8 3 -5 -27 -7 -67 -5 -40 2 -108 5 -152 7 -44 3
-81 5 -82 6 -2 1 -23 2 -48 3 -25 0 -45 3 -45 7 0 3 -16 7 -35 8 -20 2 -46 7
-59 12 -13 5 -26 6 -30 3 -16 -16 -216 147 -216 177 0 6 -4 8 -10 5 -5 -3 -10
1 -10 9 0 9 -4 16 -8 16 -4 0 -19 22 -33 50 -13 27 -27 50 -31 50 -5 0 -8 8
-8 18 0 10 -4 22 -8 28 -5 5 -17 29 -27 54 -9 25 -22 56 -28 70 -5 14 -12 34
-14 44 -2 11 -8 25 -14 33 -6 7 -9 13 -5 13 3 0 -3 22 -14 49 -10 27 -16 52
-13 55 4 3 0 6 -7 6 -7 0 -11 3 -7 6 3 3 -1 23 -8 44 -7 21 -16 53 -20 72 -4
18 -9 45 -12 61 -3 15 -8 27 -12 27 -4 0 -7 10 -8 23 -1 12 -4 33 -8 47 -3 14
-8 36 -11 50 -2 14 -7 32 -10 40 -3 8 -8 33 -11 55 -3 22 -9 49 -13 60 -4 11
-6 30 -5 43 1 12 -1 22 -5 22 -4 0 -6 10 -5 23 1 12 0 26 -3 32 -3 5 -7 25 -8
45 -3 51 -12 99 -20 112 -5 7 -3 8 6 3 9 -5 11 -4 6 3 -12 20 -18 102 -17 237
1 134 2 152 16 220 21 106 111 225 231 302 29 19 177 91 194 95 8 2 17 5 20 8
7 7 99 39 128 45 12 2 26 6 30 9 5 3 22 8 38 11 39 8 59 13 59 15 0 2 12 5 55
14 48 11 75 17 109 21 18 3 36 7 40 9 6 4 96 17 136 20 11 1 25 4 30 7 6 3 25
5 43 4 17 0 32 2 32 5 0 3 12 6 28 7 88 2 172 9 172 13 0 3 45 5 101 5 55 0
105 2 110 5 14 9 63 6 71 -5z"/>
<path d="M7533 6138 c-1 -139 -4 -278 -7 -308 -2 -30 -5 -63 -5 -72 -1 -17
-23 -18 -311 -18 l-310 0 0 -349 0 -349 318 2 318 2 0 -325 -1 -326 348 0 348
0 4 285 c3 261 9 346 22 360 2 3 144 6 314 6 170 1 312 2 317 3 9 1 9 677 -1
687 -4 4 -153 6 -331 5 l-324 -2 1 323 1 323 -350 3 -349 2 -2 -252z"/>
</g>
</svg>
